# xmcd
#
# Track frame offsets: 
#        151
#        19241
#        32098
#        44953
#        59861
#        76909
#        93061
#        115388
#        134238
#        150793
#        165331
#        180251
#        194599
#        203531
#        220002
#
# Disc length: 3131 seconds
#
# Revision: 0
# Processed by: cddbd v1.5.2PL0 Copyright (c) Steve Scherf et al.
# Submitted via: ExactAudioCopy v0.99pb4
#
DISCID=ca0c390f
DTITLE=中国大师级钢琴名品精选3 -  牧歌
DYEAR=2002
DGENRE=中国钢琴曲
TTITLE0=在银色的月光下 (塔塔尔族民歌)
TTITLE1=绣荷包 (山西民歌)
TTITLE2=马车夫之恋 (维吾尔族民歌)
TTITLE3=诺得尔江边 (朝鲜族民歌)
TTITLE4=牧歌 (内蒙古民歌)
TTITLE5=榆林小曲 (陕西民歌)
TTITLE6=嘎俄丽泰 (哈萨克族民歌)
TTITLE7=燕子 (哈萨克族民歌)
TTITLE8=思乡 (内蒙民歌)
TTITLE9=天乌乌 (台湾民歌)
TTITLE10=康定情歌 (四川民歌)
TTITLE11=阿拉木汗 (维吾尔族民歌)
TTITLE12=木棉花开 (广西民歌)
TTITLE13=三十里铺 (陕西民歌)
TTITLE14=可爱的一朵玫瑰花 (维吾尔族民歌)
EXTD=辛卯初秋，村民分享
EXTT0=
EXTT1=
EXTT2=
EXTT3=
EXTT4=
EXTT5=
EXTT6=
EXTT7=
EXTT8=
EXTT9=
EXTT10=
EXTT11=
EXTT12=
EXTT13=
EXTT14=
PLAYORDER=
